<svg width="258.74014mm" height="392.93445mm" viewBox="0 0 258.74014 392.93445" xmlns="http://www.w3.org/2000/svg">
    <path d="m -5488.5648,74.901805 -3.9336,4.176385 c 0,0 -4.9035,-3.294077 -15.8326,-1.543634 -10.929,1.750443 -16.4814,11.515867 -22.439,20.695205 -5.9575,9.179309 -10.8025,7.698389 -18.2437,9.242179 -7.441,1.54381 -10.9876,0.87595 -17.9188,5.84113 4.22,-2.17326 22.5307,8.34874 22.5307,8.34874 0,0 -15.0907,6.48785 -19.8428,9.36683 -4.7522,2.87897 -11.3586,12.45471 -9.1101,11.49506 2.2486,-0.95965 18.842,-7.21343 24.9387,-8.63205 6.0966,-1.41863 17.0379,1.18949 12.5872,3.44261 -4.4508,2.25311 -19.2401,12.57989 -23.4591,16.98179 -4.219,4.4019 -9.4115,4.48529 -7.8353,5.27803 28.2072,24.84443 33.982,-7.45175 52.853,-6.46727 0,0 -6.477,-0.37087 -12.4,8.60453 -5.9231,8.97537 1.3901,20.04367 5.7945,27.05336 4.4044,7.00964 6.9544,9.26285 6.7226,22.86495 -0.2318,13.6021 -11.5291,24.55682 -20.7087,40.43289 -9.1797,15.87608 -4.5435,22.3433 8.6465,27.22503 13.19,4.88177 27.599,-5.21896 27.599,-5.21896 0,0 -0.046,11.97487 2.434,25.0763 2.4804,13.1014 11.5208,22.80253 17.4088,26.9958 5.888,4.1933 29.3936,15.54218 56.5618,-18.2962 27.1682,-33.83832 18.7817,-79.96619 13.1487,-89.35416 -5.633,-9.38794 -16.2963,-23.27921 -32.0826,-20.90091 -15.7863,2.37827 -22.7638,8.7802 -22.7638,8.7802 0,0 -4.1484,-9.76922 3.3665,-17.11142 7.5149,-7.34223 3.1011,-18.27106 -1.6047,-24.59228 -4.7057,-6.32123 -14.263,-9.06451 -14.263,-9.06451 0,0 2.7582,-4.48542 6.6295,-8.88732 3.8712,-4.40192 5.7494,-9.97177 5.0308,-14.5823 -0.7187,-4.61053 -7.8352,-5.92521 -7.8352,-5.92521 0,0 3.9695,-2.12291 3.1753,-13.76893 -0.7942,-11.64603 -5.1459,-30.395847 -5.1459,-30.395847 z M -5598.7703,190.2237 c -3.3434,-0.0589 -7.1374,0.86419 -10.6407,3.71189 -8.6233,7.00967 -5.9587,15.27603 -5.9587,15.27603 0,0 -11.96,10.38426 -17.2221,19.70964 0,0 -3.6348,2.70825 -7.65,13.28894 -4.6102,12.14849 -7.6962,28.5606 0.3709,41.64115 8.0669,13.08054 31.9437,11.87018 47.1504,-7.94884 12.3168,-16.05244 15.1603,-48.75437 13.9316,-58.45527 -1.2285,-9.70089 -7.7836,-17.20705 -7.7836,-17.20705 0,0 -1.6509,-4.15609 -2.7404,-6.4092 -0.6469,-1.3378 -4.5709,-3.52119 -9.4574,-3.60729 z m 0.7337,23.93959 c 5.2389,-0.0887 9.1917,3.38067 10.1942,11.50956 1.7823,14.45138 -3.6265,34.1241 -9.2827,41.15465 -5.6562,7.03052 -17.2232,13.8525 -23.4821,12.47559 -8.2756,-3.63002 -8.7392,-17.12772 -7.9278,-30.41688 0.8113,-13.28917 10.9793,-24.00928 16.7235,-28.57747 4.8475,-3.85505 9.7002,-6.07646 13.7749,-6.14545 z" fill="#fff" transform="translate(31.058535,127.48392) translate(5625.0428,-197.57303)"/>
    <path d="m -7764.5254,2051.4746 -140.6035,19.7285 c -13.6271,21.0043 12.0459,48.6487 20.9297,78.9356 8.8838,30.2869 -23.9414,45.3301 -23.9414,45.3301 0,0 48.8617,28.1857 72.5019,26.0175 23.6406,-2.1681 67.2301,-30.5581 77.168,-73.041 9.9379,-42.4829 -6.0547,-96.9707 -6.0547,-96.9707 z m -112.0586,221.9902 c -18.5997,-0.061 -35.9264,1.7517 -48.2949,6.1875 -35.9807,12.9044 -44.1057,39.4425 -45.6856,54.1954 0,0 40.4384,-17.8637 78.211,-19.1524 37.7722,-1.2887 60.8808,51.502 60.8808,51.502 0,0 39.7465,-18.2648 59.25,-23.5528 19.5035,-5.2879 54.6597,12.1325 52.7344,2.8008 -1.9257,-9.3316 -33.1322,-43.3267 -62.2988,-56.3652 -19.1406,-8.5565 -59.2884,-15.4994 -94.7969,-15.6153 z" transform="translate(31.058535,127.48392) translate(5625.0428,-197.57303) matrix(0.26458333,0,0,0.26458333,-3417.4795,-450.03122)" fill="#e3a67f"/>
    <path d="m -5572.6538,141.99957 c 2.7315,-5.9159 6.1071,-11.01236 11.3703,-13.67052 5.2632,-2.65814 16.8817,-6.66724 16.8817,-6.66724 0,0 -14.8748,-6.89689 -18.7027,-7.62283 -3.828,-0.72591 -1.6656,-5.81594 7.4174,-6.25565 9.0829,-0.43968 18.5211,-0.75946 23.6067,-9.313516 5.0856,-8.554059 12.9026,-17.128093 18.9654,-19.406526 6.0626,-2.278406 20.6166,0.01482 20.6166,0.01482 0,0 -6.8923,6.960261 -10.8009,9.458536 -3.9085,2.498249 -6.7608,0.02884 -5.7455,9.437873 1.0153,9.409033 7.9663,18.063023 6.0564,22.899653 -1.9098,4.83664 -6.8532,9.97898 -6.8532,9.97898 0,0 3.189,5.69013 7.1197,6.90927 3.9308,1.21918 13.746,5.38023 21.9412,-3.07784 l 8.1952,-8.45807 c 0,0 5.3293,0.90331 6.3064,5.89984 0.9771,4.99652 0.1333,11.15224 -2.2874,14.25009 -2.4206,3.09784 -7.8441,9.24491 -7.8441,9.24491 0,0 -12.3038,-5.76892 -25.0817,-4.13176 -12.7779,1.63713 -28.9195,9.44163 -28.9195,9.44163 -10.3448,8.62893 -19.5156,13.68471 -36.7114,-1.33723 0,0 14.27,-6.12992 18.8756,-14.47668 4.6056,-8.34676 14.2574,-10.45273 14.2574,-10.45273 0,0 -14.3684,-0.31978 -19.7205,0.57959 -5.352,0.89937 -18.9431,6.75532 -18.9431,6.75532 z" fill="#314b61" transform="translate(31.058535,127.48392) translate(5625.0428,-197.57303)"/>
    <path d="m -7822.752,1984.5352 c -5.8117,-0.113 -12.1561,3.3497 -19.8398,15.248 -8.1955,12.6915 -56.3721,45.5204 -59.5723,48.9121 -3.1997,3.3918 -2.9648,22.5078 -2.9648,22.5078 l 135.6543,-25.4179 c 0,0 5.3219,-28.2997 -5.3027,-34.7247 -10.6243,-6.425 -40.691,-25.8491 -46.8184,-26.455 -0.383,-0.038 -0.7688,-0.063 -1.1563,-0.07 z m -87.6894,375.8671 c -1.088,0 -2.1573,0.065 -3.209,0.2051 -22.4364,2.9798 -48.1113,19.2246 -48.1113,19.2246 l 18.3671,38.1588 c 21.9233,-6.0023 32.6128,-8.1373 55.4668,-1.726 l 30.7383,28.1668 4.9219,27.5645 18.3848,-11.4883 20.2578,11.6836 13.9141,-36.5879 64.6464,2.8262 9.004,-48.2813 c 0,0 -37.1589,-8.7613 -47.0918,-7.8203 -9.933,0.9411 -39.6874,14.4278 -63.3438,10.1934 -22.5472,-4.0359 -51.8234,-32.0792 -73.9453,-32.1192 z m 79.3164,168.2422 c 0,0 -28.274,21.5649 -39.7676,19.252 -11.4939,-2.3129 -49.8437,-10.3633 -49.8437,-10.3633 l -19.6075,38.1602 c 0,0 25.7471,2.4708 49.9258,14.0761 24.1788,11.6054 36.4219,54.6563 36.4219,54.6563 0,0 27.6202,-25.995 39.3828,-38.9727 11.7627,-12.9777 49.2735,-20.7812 49.2735,-20.7812 l 7.9277,-28.5821 -49.8379,4.4707 z" transform="translate(31.058535,127.48392) translate(5625.0428,-197.57303) matrix(0.26458333,0,0,0.26458333,-3417.4795,-450.03122)" fill="#e4cc72"/>
    <path d="m -7900.4785,2315.916 c -0.3974,0 -0.7902,0.023 -1.1777,0.053 -24.8032,1.9342 -60.0814,8.4701 -76.9083,17.8789 -16.8272,9.4086 11.0391,49.1914 11.0391,49.1914 l 5.7637,-3.2071 c 0,0 18.6899,-21.1024 38.0332,-21.416 19.3425,-0.3137 66.2197,21.4851 72.6094,28.9082 6.3893,7.4232 18.9355,8.4166 27.416,8.2598 8.4809,-0.1569 20.0971,-0.3139 37.6972,-8.2598 17.6005,-7.9459 59.9454,2.8242 59.9454,2.8242 l 10.5722,-23.9961 c 0,0 -30.0891,-21.3286 -54.3691,-20.4921 -24.2805,0.8364 -61.6153,20.5371 -61.6153,20.5371 0,0 -43.9734,-50.5466 -69.0058,-50.2813 z m -8.2281,95.2344 c -3.0122,0.029 -5.9604,0.2009 -8.7734,0.5371 -22.5044,2.6899 -24.2412,6.9322 -23.935,14.6853 0.3076,7.7532 9.6148,4.1465 23.4599,5.096 l -15.5273,7.6855 12.7461,98.3789 49.8437,10.3633 38.2403,-34.1387 24.8339,36.3535 43.9102,1.8594 28.8437,-113.541 c 0,0 -11.1628,-4.034 -23.1621,-1.6211 -11.9996,2.413 -41.4843,-1.2051 -41.4843,-1.2051 l -13.2832,27.8653 -41.5352,-0.3165 c 0,0 -6.6926,-22.8004 -9.9891,-29.4064 -2.8845,-5.7803 -23.1023,-22.8005 -44.1882,-22.5955 z" transform="translate(31.058535,127.48392) translate(5625.0428,-197.57303) matrix(0.26458333,0,0,0.26458333,-3417.4795,-450.03122)" fill="#de5555"/>
    <path d="m -5522.3507,278.29655 c -9.3868,-1.72252 -16.0941,-3.6248 -16.194,-14.60397 -0.1,-10.9792 20.1826,-32.23826 20.1826,-32.23826 0,0 10.8074,2.31132 14.1527,5.08235 3.3453,2.77101 8.6935,13.10309 8.6935,13.10309 0,0 12.5147,-10.39632 17.9858,-13.10309 5.4712,-2.70679 5.9916,0.92866 4.3606,7.06983 -1.6311,6.14113 -9.287,24.90914 -22.8347,29.89696 -13.5477,4.98779 -26.3465,4.79309 -26.3465,4.79309 z" fill="#206ca9" transform="translate(31.058535,127.48392) translate(5625.0428,-197.57303)"/>
    <path d="m -5463.9094,206.38962 c 0,0 15.8495,-12.27322 33.8442,-7.1909 17.9947,5.08236 32.5436,36.22252 24.8384,69.90382 -7.7052,33.6813 -29.4807,63.65854 -56.8077,60.47129 -27.3271,-3.18723 -32.1926,-31.18946 -32.1926,-31.18946 l -4.3892,-24.29576 c 0,0 18.9699,-4.59846 22.8465,-17.26123 3.8765,-12.6628 11.8604,-50.43776 11.8604,-50.43776 z" fill="#6e5946" transform="translate(31.058535,127.48392) translate(5625.0428,-197.57303)"/>
    <path d="m -8244.3711,2419.582 c -16.3268,0.1058 -34.6085,4.9452 -45.2187,18.1739 -19.9722,24.9007 -17.3965,53.8711 -17.3965,53.8711 0,0 -45.7933,44.5047 -74.1699,90.6308 -28.3764,46.1261 -29.5327,94.0725 -35.8653,141.9453 8.5735,69.5297 39.5537,75.4054 90.2149,74.2657 50.6611,-1.14 69.9508,-15.4325 104.4394,-67.6016 34.4886,-52.1692 57.4821,-103.7252 55.6309,-172.8164 -1.8509,-69.0912 -31.4102,-100.332 -31.4102,-100.332 0,0 -4.0534,-19.7004 -14.1855,-29.8711 -4.7497,-4.7676 -17.6331,-8.359 -32.0391,-8.2657 z m 1.9121,97.2676 c 19.8488,0.4878 35.0781,11.4877 39.7012,38.9922 7.0446,41.9115 -10.158,135.0439 -46.3027,167.0469 -36.1448,32.0029 -77.7208,33.6504 -77.7207,33.6504 -16.4898,-0.9461 -30.8124,-13.7467 -31.4942,-56.0957 -0.6822,-42.3492 2.6541,-79.4123 11.3027,-104.6016 8.6487,-25.1894 35.2649,-58.4333 70.3809,-71.9668 12.0711,-4.6521 23.7358,-7.2809 34.1328,-7.0254 z" transform="translate(31.058535,127.48392) translate(5625.0428,-197.57303) matrix(0.26458333,0,0,0.26458333,-3417.4795,-450.03122)" fill="#e4cc72"/>
    <path d="m -5489.376,70.090231 c -1.5974,0.01492 -2.9139,1.40576 -4.4422,4.556281 -1.3967,2.301362 -1.3189,2.309023 -3.5837,1.137697 -5.1901,-2.12605 -12.9461,-1.700061 -17.2195,-0.503668 -5.4628,1.529514 -12.9724,7.981305 -18.9534,16.283073 -7.2288,10.033226 -6.7393,12.080316 -17.3608,12.852116 -4.8567,0.3528 -9.9895,1.08432 -11.4059,1.62569 -4.3235,1.65237 -8.1022,6.01428 -9.5626,11.03808 -1.7459,6.00606 -0.5829,7.55631 3.0542,4.07178 3.527,-3.37896 8.7583,-3.87825 14.32,-1.36746 l 4.2059,1.899 -3.6172,1.10266 c -11.1914,3.41228 -24.9335,17.27137 -24.1159,24.3215 0.4127,3.55876 2.7217,3.21569 6.6645,-0.99104 5.0994,-5.44084 12.3941,-8.57229 20.976,-9.00443 l 6.7746,-0.34087 -8.7987,8.46537 c -11.2181,10.79309 -11.7636,11.08839 -18.0429,9.75575 -9.3625,-0.38531 -6.2856,0.18794 -2.022,5.14438 7.1189,6.51653 21.0048,9.68605 29.8001,5.52079 1.5874,-0.79563 5.9766,-4.63262 9.7537,-8.52644 6.9705,-7.18685 8.5553,-8.11324 18.4343,-10.77878 3.6734,-1.27422 5.8559,-2.23723 2.5515,-4.91262 -3.4554,-2.16317 -20.5211,2.76119 -27.4466,12.40484 -3.3339,4.64251 -6.9087,6.74547 -17.8868,6.97903 -4.2363,0.0603 -6.2076,-0.18171 -2.9689,-2.69617 1.6434,-1.27594 10.2273,-6.64617 13.9162,-10.07015 8.9899,-8.34434 17.7925,-11.10233 29.6254,-13.12893 l 5.2224,-0.7555 2.4981,2.30441 c 3.2823,3.4775 9.4463,6.09058 15.3619,5.64604 6.3868,-0.48008 14.7008,-5.19582 18.9036,-9.49986 2.5018,-2.56091 3.5284,-3.12245 4.3981,-2.40051 1.6505,1.36963 4.496,4.05683 2.4519,8.80836 -2.0522,4.77024 -5.0223,9.36852 -2.7557,9.80064 3.7524,0.7156 8.5782,-7.25497 8.6731,-14.32602 0.058,-4.31622 -0.1474,-4.78402 -3.2905,-7.50236 l -3.352,-2.89904 1.4205,-4.3991 c 0.7813,-2.41957 1.5116,-6.28586 1.3599,-9.32828 2.606,-0.66359 4.9856,-4.70981 -1.2123,-5.16943 0,0 -1.8189,-7.589885 -2.6792,-12.981629 0.093,-4.036641 -2.538,-10.805562 -4.3727,-12.910013 -0.6824,-0.783237 -2.4683,-1.905282 -3.9686,-2.494108 -1.5002,-0.588603 -4.5772,-2.591217 -6.8381,-4.44967 -1.8148,-1.473008 -3.2273,-2.293865 -4.4697,-2.282407 z m 0.8113,7.886773 c 0.4535,-0.06305 1.1399,0.860675 3.3305,1.982594 1.9691,1.126074 4.2287,2.057659 5.0213,2.057659 0.7925,0.0058 2.048,0.61704 2.7899,1.35892 1.6881,1.688854 1.8118,6.376677 0.1676,6.376677 -0.6491,0 -2.4256,0.249195 -3.9476,0.553589 -2.5347,0.358576 -5.188,1.140012 -7.5329,1.185244 -1.7703,0.01182 -6.5023,0.774831 -10.515,1.694754 -4.0128,0.9197 -7.6081,1.670384 -7.9899,1.694782 -1.8088,0.05724 0.9312,-2.030829 5.689,-4.335552 5.8767,-2.846553 10.2726,-6.683687 11.7538,-10.259257 0.6686,-1.614236 0.8805,-2.260333 1.2333,-2.30941 z m -8.5405,2.201317 -2.5752,2.267365 c -1.4162,1.24703 -4.4938,3.497813 -6.8391,5.001748 -3.4828,2.233668 -4.4755,3.442304 -5.4192,6.597406 -1.7097,5.71797 -0.8249,11.653 2.8139,18.8788 2.4845,4.93376 3.039,6.86137 2.6183,9.10356 -0.8219,4.3814 -3.9879,6.34275 -10.2422,6.36717 -2.8869,0.008 -8.1201,0.76002 -11.6287,1.67123 -5.0744,1.31781 -8.0591,1.55542 -14.5919,1.16223 -6.1252,-0.36887 -14.2781,1.71868 -18.8664,3.68627 -3.7092,1.59061 -6.7718,2.42401 -2.4884,-1.32702 4.5091,-3.93762 14.1038,-8.79908 20.5505,-9.09178 9.4347,-0.42826 15.58,-4.56405 20.0455,-13.49065 3.0591,-6.11436 3.7481,-9.54042 2.1218,-10.54556 -1.356,-0.838225 -1.9775,2.94281 -5.5037,8.97053 -3.9101,6.68418 -10.5665,9.07348 -15.0424,8.97127 -1.6619,-0.0377 -8.535,-1.71722 -11.6038,-3.18174 -6.9196,-2.99097 -8.4375,-3.99326 -1.7829,-4.43748 12.1844,-0.092 22.2135,-2.65322 28.9624,-14.701361 7.6414,-13.64088 12.4719,-14.660982 22.7085,-15.40846 z m 9.8834,2.388989 c -0.7493,-0.02964 -1.3721,0.438735 -2.4931,1.556654 -2.5193,2.512483 -1.945,4.416099 1.5646,5.18693 1.9921,0.683959 4.2219,1.400684 5.3316,-0.295328 1.3721,-2.196911 0.3893,-4.277942 -2.7824,-5.890153 -0.6757,-0.343447 -1.1711,-0.54032 -1.6207,-0.558103 z m 11.7233,12.89252 c 1.5141,-0.04019 1.4305,0.948806 1.9491,3.879577 1.2611,5.880003 1.1879,6.319373 -1.2383,7.424793 -3.2946,1.50124 -2.2485,5.30656 1.4589,5.30656 1.9547,0 2.3193,2.78445 0.4895,7.32056 -2.1789,5.40158 -4.582,10.07283 -13.848,13.93315 -4.7134,1.96368 -11.514,1.34571 -15.9977,0.10868 -4.4077,-1.31439 -4.7225,-2.05486 -1.7699,-4.15736 6.4202,-4.57145 6.8748,-10.85101 1.406,-19.41387 -2.0887,-3.27042 -4.0496,-6.95961 -4.3575,-8.19857 -0.6702,-2.693309 -0.3658,-2.77401 15.8806,-4.206416 5.9012,-0.520231 12.1557,-1.26182 13.8991,-1.647739 0.9411,-0.20834 1.6235,-0.33594 2.1282,-0.349365 z m -4.2505,2.238347 c -1.96,0.0098 -3.3344,2.203168 -2.2708,4.190413 0.4702,0.87884 1.7659,1.59817 2.879,1.59817 3.5661,0 3.7768,-4.536555 0.2623,-5.651937 -0.2985,-0.09473 -0.5905,-0.138021 -0.8705,-0.136646 z m -9.9944,0.998552 c -0.4547,-0.01153 -0.9227,0.140821 -1.353,0.498012 -1.3518,1.121939 -1.7138,3.579759 -0.6792,4.614349 1.2115,1.21148 4.1148,0.0917 4.3686,-1.68476 0.269,-1.88312 -0.9727,-3.39313 -2.3364,-3.427601 z m 6.8346,16.124401 c -2.1142,0.0629 -4.772,0.7787 -6.5614,1.95105 -2.5591,1.67669 -2.5872,2.505 -0.124,3.69285 2.5927,1.25042 2.6884,1.2458 6.5688,-0.30679 3.8091,-1.52391 4.872,-3.17343 3.0296,-4.70243 -0.5719,-0.47477 -1.6445,-0.67241 -2.913,-0.63468 z m -47.503,46.11009 c -4.9072,8.53583 -9.039,16.2904 -14.8899,23.50188 -3.3023,4.00696 -10.7787,10.05844 -15.2614,12.35246 -7.8115,3.98995 -10.5489,4.61617 -17.7647,4.01422 l -6.7071,-0.55959 -0.991,-3.09775 c -1.3916,-4.35126 -3.7277,-6.60136 -8.136,-7.83573 -5.5414,-1.55137 -11.0382,-0.67567 -14.81,2.35947 -5.1332,4.13008 -7.1559,7.75139 -6.9108,12.37247 0.2056,3.8746 0.053,4.14978 -4.7225,8.51442 -2.7145,2.48089 -6.7272,6.86318 -8.9177,9.73924 -4.8309,6.34229 -4.6952,6.24437 -10.2864,7.41327 -3.651,0.76303 -5.3875,0.68581 -9.1451,-0.40645 -2.5511,-0.74187 -5.0618,-1.34841 -5.5793,-1.34841 -2.1097,0 -2.5444,3.04843 1.5818,5.29424 3.1157,1.69567 7.1441,1.67021 10.179,1.67021 3.6086,0 4.4844,-0.54259 3.9932,0.64553 -5.6662,13.70439 -8.1109,23.85571 -8.1109,33.67531 0,11.23521 3.6171,17.36654 12.7823,21.66573 5.1389,2.41054 6.48,2.66299 14.2565,2.68731 7.9706,0.0251 8.8888,-0.15251 12.8625,-2.48812 8.1487,-4.78945 16.6602,-14.11172 21.2467,-23.2714 2.7234,-5.43866 7.9934,-21.56639 9.2912,-28.43331 1.5471,-8.18666 0.7616,-23.06833 -1.453,-27.52784 l -1.8064,-3.63582 2.2469,0.63166 c 12.589,3.53881 34.6255,-9.73275 42.6632,-25.69393 l 4.7531,-7.15343 1.927,5.7265 c 2.0178,5.99641 3.9659,10.08751 7.7774,11.6664 2.4938,1.03289 3.558,2.57134 3.8356,17.04827 0.2831,11.12608 -6.0082,17.7523 -12.8147,25.9541 -8.9488,10.78331 -11.4813,11.82106 -13.6646,24.22117 -0.713,6.59908 1.358,15.97379 9.83,18.87099 0.8939,0.30571 3.8225,1.09506 6.3961,2.36346 3.9758,1.95968 5.1637,3.14473 7.9008,7.88577 3.9897,6.91024 8.0667,17.12403 9.7738,24.48417 l 1.2938,5.57835 -5.8986,13.50966 c -3.2443,7.4302 -6.9945,16.55706 -8.3343,20.28177 -2.3725,6.59658 -2.5826,6.86631 -8.0714,10.37788 -3.0994,1.98303 -6.8743,4.31992 -8.3889,5.19392 l -2.7538,1.58869 -2.1733,-2.34447 c -3.0452,-3.28575 -2.7986,-3.44871 -23.1247,15.32156 -22.8251,21.07863 -27.0889,25.93887 -30.6236,34.9061 -2.5186,6.38977 -6.9225,23.01756 -6.3442,23.95361 1.0728,1.73558 3.7687,0.6205 7.0148,-2.90105 6.3791,-6.92045 16.7116,-26.96127 16.6825,-32.35491 -0.015,-2.8023 0.3435,-3.20453 5.2916,-5.92873 2.9195,-1.60734 13.8616,-8.2695 24.316,-14.80502 10.4543,-6.53552 19.2222,-11.88294 19.4834,-11.88294 0.9347,0 -1.4095,5.60461 -2.872,6.8672 -1.9486,1.68205 -5.6765,13.37048 -13.4135,42.06009 -1.0822,4.01281 -2.9484,10.52685 -4.1469,14.47518 -2.7731,9.13488 -3.1528,22.64085 -0.6772,24.08275 2.1833,1.27181 2.6609,1.15444 4.831,-1.18727 2.8632,-3.08914 4.8845,-11.14513 7.4378,-29.64557 0.4886,-3.54076 1.4482,-7.59657 2.1327,-9.01294 0.6842,-1.41612 2.7835,-6.55066 4.6655,-11.40947 1.8817,-4.8588 4.7833,-11.26941 6.4478,-14.24543 3.2125,-5.74475 3.8641,-10.21041 1.8839,-12.91853 -0.9873,-1.35017 -0.716,-2.55272 2.0016,-8.8588 2.8103,-6.52117 5.0289,-7.67416 9.5685,-11.0633 9.4804,-7.07838 16.8847,-15.70574 18.0249,-21.00253 1.3157,-6.10972 -0.018,-14.3683 -1.3201,-19.33805 -1.6046,-6.12625 -1.7169,-8.75341 -0.5101,-11.92751 0.8494,-2.23415 0.9467,-2.14104 3.8716,3.70587 6.4406,12.87395 17.5837,19.0401 34.4371,19.0645 16.0977,0.021 28.4795,-4.2123 41.6715,-21.23676 12.9616,-16.72691 21.1829,-46.13018 18.9594,-67.80809 -1.6527,-16.11131 -7.9672,-31.70378 -14.9576,-38.47034 -11.829,-11.45018 -22.3024,-12.63424 -36.4391,-11.5471 l -0.9596,-7.59847 c -1.2915,-10.23296 -5.7593,-23.3177 -10.3443,-27.45969 -4.8505,-4.3824 -16.8705,-11.09985 -24.686,-12.3533 -15.4394,-2.47615 -37.1887,-1.08552 -45.3018,13.02667 z m 39.2508,-6.72882 c 10.9469,1.94376 18.7786,4.53841 25.4688,12.53066 1.8446,2.02465 1.8814,2.19699 0.3468,1.62521 -6.498,-2.42125 -13.6328,-1.45325 -18.8952,2.56368 -4.3066,3.28724 -4.71,3.44328 -4.71,1.81841 0,-1.9704 -6.0503,-8.29527 -9.7487,-10.19119 -2.2464,-1.15162 -5.7949,-1.96922 -9.6356,-2.22034 -5.9395,-0.38784 -7.6105,0.0439 -15.165,3.9156 -1.3774,0.70587 -0.5417,-1.51964 1.4671,-3.90709 9.2115,-7.34899 20.6499,-7.94999 30.8718,-6.13494 z m -19.4979,10.4855 c 0.6365,0.0262 1.2727,0.0856 1.9031,0.1797 7.3628,1.09832 9.3303,2.50045 16.799,11.97254 2.624,3.32763 3.9152,0.95264 7.614,-0.82385 6.7241,-3.42226 10.548,-3.72361 17.2787,-1.36294 3.2661,1.14555 4.3604,1.97883 4.5817,3.48667 0.2521,1.72294 0.028,1.90033 -1.7168,1.35991 -7.7039,-2.38694 -8.9128,-2.44595 -13.0051,-0.63565 -2.4225,1.07156 -4.4113,2.64762 -5.0163,3.97517 -1.282,2.81396 -0.5513,3.52384 1.9916,1.93403 3.1381,-1.96189 6.4979,-2.44473 10.1567,-1.45956 5.0431,1.35823 4.7372,2.17526 -0.7193,1.91953 -3.42,-0.16035 -5.8716,0.2636 -8.2896,1.43301 -5.5912,2.70345 -1.3556,2.01624 2.6577,2.45057 7.1249,0.0981 9.382,0.42505 6.8497,2.35795 -2.4323,1.85654 -6.9303,2.45902 -10.8779,1.45704 -2.8007,-0.71073 -3.3913,-0.66104 -3.0392,0.25627 0.2403,0.62655 -0.2463,2.47927 -1.0811,4.1168 -1.2271,2.40693 -1.7989,2.82034 -2.9821,2.15827 -0.8052,-0.45062 -2.6083,-0.56807 -4.0067,-0.26078 -1.9495,0.42799 -2.5423,0.2532 -2.5423,-0.74976 0,-1.74533 -3.973,-6.29671 -4.7874,-5.48426 -0.3529,0.35209 -0.1923,1.62554 0.3563,2.82996 1.1928,2.61519 1.2847,6.70475 0.2338,10.36888 -1.5389,5.36614 3.0065,6.51894 4.7319,1.20026 1.5906,-4.90432 3.3512,-5.28318 6.6039,-1.4215 1.8998,2.25532 3.3341,3.20984 4.4808,2.98112 1.5085,-0.30293 1.6692,-0.9854 1.5085,-6.90823 l -0.1776,-6.5719 2.5276,0.88091 c 1.3903,0.48446 4.6829,0.74967 7.3167,0.58663 l 4.7885,-0.2943 -0.5096,3.00414 c -0.2803,1.65239 -1.5437,7.34963 -2.8079,12.66077 -1.9986,8.39495 -2.5283,9.66615 -4.0537,9.66615 -0.965,0.005 -3.1724,0.24417 -4.9057,0.53055 -3.1204,0.51607 -3.1703,0.47777 -5.0563,-3.9061 -1.7694,-4.11303 -3.6756,-6.07587 -5.9007,-6.07587 -0.5038,0 -2.2798,1.89788 -3.9461,4.21741 -3.9168,5.36222 -6.1403,6.20572 -12.5001,5.46273 -5.369,-0.43033 -3.9541,-1.9827 -3.863,-7.3557 0.098,-8.56966 -0.1121,-9.39033 -2.0552,-14.55425 -0.7927,-2.10683 -2.3955,-4.66624 -0.6247,-4.70593 2.7638,-0.0619 4.9067,-1.15294 4.9067,-1.91451 0,-0.95332 1.3413,-1.0477 -6.3378,-2.55038 -2.2344,-0.34945 -4.0596,-2.88125 -2.6751,-3.77425 l 2.3539,-0.63868 c 1.36,-0.36887 4.4408,-0.13995 7.2962,0.54257 2.718,0.64941 4.6727,1.80088 6.0888,1.80088 4.3784,0 3.562,-0.61733 1.3004,-3.07471 -1.6371,-1.49007 -4.4327,-2.83121 -7.09,-3.40107 -4.2859,-0.91926 -6.1089,-0.62453 -12.1572,1.96656 -0.9466,0.40535 -1.6723,-0.13083 -2.4306,-1.79489 -0.9632,-2.11442 -0.8797,-2.53493 0.7669,-3.86855 4.3615,-3.53151 14.4018,-2.65128 21.466,1.88199 4.8106,3.08696 5.1607,3.13088 5.1239,0.64466 -0.1262,-8.52636 -20.3532,-13.01265 -27.5559,-6.1119 l -2.342,2.24384 -0.6117,-3.26041 c -0.55,-2.932 -0.343,-3.49999 2.0542,-5.6419 2.9765,-2.65961 7.4719,-4.10871 11.9275,-3.92564 z m 53.3104,21.86593 0.6217,5.80207 c 0.5849,5.46152 0.501,5.89464 -1.4235,7.37475 -2.8916,2.22344 -3.1453,1.81279 -2.6097,-2.4934 0,0 0.6098,-4.70454 1.7548,-7.95906 z m -28.9569,0.22923 c -0.8104,-0.0714 -2.1522,0.67378 -3.4941,2.10223 -1.9784,2.10591 -2.0239,2.11172 -3.2029,0.42893 -2.7157,-3.87726 -3.767,-0.96808 -1.43,3.95715 2.0661,4.35393 5.0512,4.05294 7.2216,-0.72826 0.9108,-2.00638 1.6748,-4.13141 1.6748,-4.72144 0.012,-0.65916 -0.2831,-0.99579 -0.7694,-1.03861 z m -113.0144,5.16842 c 3.4301,0.0717 7.0279,0.94607 8.4409,2.35899 2.3947,2.39475 1.7839,2.84314 -2.3881,1.75333 -6.6012,-1.72487 -8.7686,-1.77481 -11.9319,-0.2738 -3.3238,1.57721 -4.7547,3.53961 -5.609,7.69209 -0.7519,3.65267 -3.4651,4.02677 -3.4651,0.47799 0,-3.13322 5.3996,-9.52804 9.4679,-11.21326 1.4293,-0.59209 3.4272,-0.83831 5.4853,-0.79534 z m -1.0866,6.01433 c 2.8212,0.0571 2.8341,0.0746 0.7262,0.98753 -1.1803,0.5112 -3.6068,1.64385 -5.3917,2.51714 -3.8608,1.88888 -4.1256,1.9233 -3.5677,0.46897 0.7197,-1.87548 5.1946,-4.03449 8.2332,-3.97364 z m 186.6891,18.21608 c 8.0987,15.98161 9.3864,38.37787 3.3862,58.88372 -1.7115,5.84889 -4.6198,13.85165 -6.4629,17.78466 -12.1453,27.43387 -34.6386,44.45438 -60.6663,29.45488 -4.6233,-2.8573 -10.3956,-9.95793 -12.3575,-15.20145 -2.732,-6.84765 -1.7635,-8.71932 -1.7635,-8.71932 1.8406,-6.20839 7.2457,-18.00049 8.6156,-21.24926 1.3697,-3.2488 2.6528,-7.76556 4.2424,-9.94594 7.0047,-9.60838 8.9291,-18.02724 12.1819,-37.3552 2.1767,-12.93355 4.6023,-19.77733 5.1404,-20.17465 0.1594,-0.11755 0.9453,-1.38356 2.7283,-2.71061 1.7832,-1.3273 3.4094,-2.24403 3.6163,-2.03965 0.8227,0.82265 3.0026,16.95143 3.0026,22.18325 v 5.57936 l -3.6413,2.06716 c -5.4655,3.10255 -9.2206,6.1481 -9.2206,7.47733 0,1.93536 3.0788,1.8316 7.9483,-0.26726 1.7753,-0.7645 3.431,-1.18794 3.6794,-0.93948 0.4304,0.43041 -0.9314,14.47418 -1.7879,18.43833 -0.2657,1.22996 -2.1807,2.82922 -5.5213,4.60983 -9.2202,4.91428 -9.9754,9.81414 -0.8619,5.59186 2.5439,-1.17863 4.768,-2.00069 4.9407,-1.82791 1.1716,1.17158 -1.4738,9.23936 -5.1074,15.57683 -4.8566,8.46988 -5.2376,11.75942 -1.4125,12.20128 1.7072,0.19707 2.6858,-0.31175 3.7645,-1.95805 2.3101,-3.52543 2.4073,-1.93752 0.3143,5.11336 -1.7571,5.91773 -1.8147,6.66719 -0.6061,7.87575 1.9205,1.9205 4.0658,0.42514 5.9096,-4.11932 l 1.5196,-3.74493 0.048,4.87762 c 0.042,4.24201 0.2928,4.95597 1.926,5.47423 2.192,0.69564 4.9561,-2.08806 5.0432,-5.08181 0.053,-1.81295 0.064,-1.81205 0.8304,0.0946 2.1704,5.39948 5.9823,-0.63811 5.9823,-9.47543 0,-8.36503 -4.9687,-16.70552 -11.1953,-18.7927 -1.1089,-0.37179 0.8175,-11.03761 2.0712,-11.46853 7.3962,-2.54046 10.7752,-4.13349 11.2183,-5.28854 0.9923,-2.5855 -0.9002,-3.25372 -6.1175,-2.15927 -2.6796,0.56208 -4.9363,0.93179 -5.0167,0.81985 -0.079,-0.11094 0.3576,-4.64389 0.9721,-10.07304 0.6142,-5.42939 1.1345,-10.10265 1.1587,-10.38488 0.023,-0.28226 1.6104,-1.22069 3.5276,-2.08521 4.3209,-1.94848 5.6314,-4.04136 3.7245,-5.94822 -0.9832,-0.98326 -2.1946,-1.21582 -4.29,-0.82285 l -2.9196,0.54805 v -5.99177 c 0,-3.29551 -0.5909,-9.37886 -1.3129,-13.51868 -0.7222,-4.13955 -1.0777,-7.76181 -0.7904,-8.04893 13.4247,-3.22621 27.4403,3.18698 33.5587,14.74091 z m -179.4836,-10.26276 c 1.1954,-0.0649 3.7667,1.22963 5.7816,2.98862 1.4495,1.26528 1.4034,1.38949 -0.8584,2.31995 -1.8293,0.75169 -2.591,0.73857 -3.248,-0.058 -0.4722,-0.57254 -2.4848,-1.28199 -4.4726,-1.57665 -3.3547,-0.49734 -3.9166,-0.27387 -7.8267,3.11677 -2.3166,2.00906 -7.0638,5.19803 -10.5491,7.08642 h 5e-4 c -8.6611,4.69287 -8.6611,4.69307 -3.362,-0.75531 2.5804,-2.65315 4.9936,-4.82405 5.3626,-4.82405 0.3692,0 2.5543,-1.35256 4.8551,-3.00564 2.5498,-1.83171 5.9289,-3.3365 8.6521,-3.85306 2.4577,-0.46594 4.8167,-1.06261 5.2425,-1.32588 0.109,-0.0674 0.2516,-0.10435 0.4224,-0.11362 z m -22.1687,5.85515 c 0.1536,0.008 0.2387,0.0865 0.2387,0.24725 0,0.2331 -3.1091,3.48788 -6.9092,7.23207 -6.7086,6.61022 -7.1,6.09077 -1.0571,-1.40245 2.2143,-2.74561 6.6525,-6.1341 7.7276,-6.07687 z m 31.4694,1.89098 c 0.3421,-0.0473 0.9825,0.58624 1.5321,1.55111 0.7889,1.38401 1.1349,5.32703 1.1107,12.73435 -0.028,9.67092 -0.3096,11.61881 -2.8474,19.74271 -3.9602,12.67735 -9.4199,23.45542 -15.0008,29.61353 -2.567,2.83272 -5.9679,5.87983 -7.5569,6.77111 -2.8126,1.57743 -2.7848,1.50862 1.042,-2.57571 14.5638,-15.54215 20.4647,-30.49599 20.5597,-52.11161 0.018,-4.05174 0.459,-6.73156 1.2878,-7.82721 1.5203,-2.01005 1.6325,-4.91401 0.2443,-6.30262 -0.5599,-0.55865 -0.783,-1.24817 -0.4986,-1.5326 0.036,-0.0356 0.078,-0.0563 0.1271,-0.0631 z m -23.4275,4.07877 0.7983,2.09871 c 0.439,1.15454 1.4832,2.13759 2.3209,2.18376 0.838,0.0468 2.2961,0.1686 3.2405,0.27081 0.9444,0.10146 2.5409,0.25718 3.5482,0.34486 1.0635,0.092 2.0306,0.92187 2.3074,1.98006 0.3863,1.47754 0.9738,1.74893 3.1043,1.43602 l 2.6282,-0.3854 v 6.64295 c 0,10.04829 -2.042,19.01469 -6.219,27.30962 -3.4258,6.80271 -4.0254,7.48528 -9.6611,10.99854 -3.3047,2.05994 -7.5535,4.49408 -9.4419,5.40968 -4.0114,1.94482 -7.5553,2.17104 -8.8864,0.5671 -2.1462,-2.58601 -3.8862,-12.31738 -3.9366,-22.04062 -0.044,-8.22804 0.2838,-10.84544 1.9681,-15.72298 2.077,-6.01506 3.1594,-7.36544 13.3335,-16.63344 z m 117.299,4.13433 c 0.4319,-0.0564 0.6472,0.80189 1.5105,2.94358 2.0211,4.83691 5.4813,5.76335 13.0872,3.50268 1.5349,-0.45621 1.9311,-0.23336 1.9311,1.08614 0,1.25431 -1.1252,2.01437 -4.6048,3.11126 -5.7178,1.80226 -9.8501,4.53378 -12.1132,8.0064 -0.9553,1.46624 -2.1671,3.38823 -2.6924,4.27148 -0.8632,1.45138 -1.0129,1.34326 -1.5576,-1.1262 -1.0042,-4.55417 -6.8006,-10.34095 -11.865,-11.84491 -2.4137,-0.71681 -5.2842,-1.30285 -6.3786,-1.30285 -2.3726,0 -2.3721,0 -0.5736,-3.77046 l 1.416,-2.97012 4.1949,1.65324 c 6.4396,2.53828 11.1567,2.21598 14.836,-1.01457 1.729,-1.51801 2.3775,-2.48932 2.8095,-2.54567 z m -133.6326,8.24213 c 1.0612,-0.14983 0.609,0.78158 -1.2874,3.55725 -3.7842,5.53863 -5.7399,13.34941 -5.8761,23.45757 -0.2385,17.80163 2.9782,25.75101 10.4214,25.75101 1.8938,0 4.4923,-0.39833 5.7736,-0.88544 2.1312,-0.81024 2.2271,-0.76219 1.1286,0.5651 -0.6603,0.7981 -2.7456,2.15376 -4.6343,3.01267 -1.8883,0.85914 -3.8195,1.57564 -4.2916,1.57564 -1.4461,0.0228 -5.7802,-2.50187 -6.9898,-4.07178 -4.3863,-5.69242 -5.2454,-25.13168 -1.7163,-38.82267 2.8205,-10.94155 3.6215,-12.79378 5.9038,-13.65733 0.6926,-0.26198 1.2144,-0.43207 1.5681,-0.48202 z m -9.7447,3.07072 c 0.5294,-0.10231 -0.04,2.82077 -1.7464,8.27868 -2.4599,7.86235 -2.621,9.22678 -2.6713,22.53214 -0.045,11.5744 0.2123,14.7517 1.404,17.38221 1.7526,3.86828 0.78,4.1673 -2.1663,0.6657 -3.499,-4.15807 -4.2915,-7.92373 -3.7834,-17.97884 0.4652,-9.20519 2.8957,-18.92332 6.8332,-27.32214 1.0996,-2.34581 1.8125,-3.49635 2.1302,-3.55775 z m 117.5431,1.2203 c 0.8453,0.0146 1.8004,0.44578 3.3456,0.96701 2.3392,0.78907 5.1449,2.01014 6.2345,2.71383 2.8646,1.84995 5.3151,7.22237 5.3151,11.65123 0,5.43622 2.954,8.08004 6.1184,5.46073 0.7129,-0.59029 3.5635,-3.71003 6.3346,-6.93277 4.516,-5.2513 11.0386,-9.99096 12.1793,-8.85028 1.7798,1.77988 -7.4575,19.37992 -12.5071,23.82998 -4.7091,4.15001 -20.1257,11.90294 -24.7485,12.44553 -2.9966,0.35184 -3.4376,0.11574 -5.5217,-2.95808 -1.3594,-2.00494 -3.8759,-4.12046 -6.2952,-5.29156 -3.7115,-1.79665 -4.1406,-1.84153 -5.4181,-0.56407 -1.2771,1.27739 -1.2169,1.57492 0.7593,3.75943 1.1806,1.30489 2.6571,3.04875 3.2814,3.87506 1.1657,2.85966 -5.2782,-0.19875 -7.1734,-3.95261 -4.8283,-9.56375 -2.0528,-12.70144 9.0188,-26.73456 5.8924,-7.46828 7.2176,-9.45101 9.077,-9.41887 z m 23.5678,42.82039 c 0.1908,-0.008 0.1602,0.24715 -0.2067,1.29984 -1.0103,2.89817 -2.397,4.83707 -2.397,4.83707 -0.691,-1.80077 -0.032,-5.85762 1.4815,-5.85762 0.5192,0 0.9314,-0.27124 1.1222,-0.27929 z m -7.6075,3.07922 c 0.2832,0 -0.5201,8.64446 0.9295,13.15378 l -0.8094,3.60127 c -0.8762,3.05975 -1.7922,5.53786 -2.0331,5.50629 -0.3307,-0.0426 -5.7826,-10.66569 -9.2677,-18.05794 -0.2115,-0.44842 9.776,-4.2034 11.1807,-4.2034 z m 54.868,8.80624 c 0.07,-0.0903 0.2947,0.21237 0.7093,0.86191 0.5313,0.83213 0.8182,3.14957 0.6381,5.1499 -0.3045,3.36483 -0.3385,3.41206 -0.4894,0.63265 -0.089,-1.65237 -0.3762,-3.96958 -0.6382,-5.1499 -0.2046,-0.92095 -0.2896,-1.40428 -0.2198,-1.49456 z m -59.1065,45.98848 c 0.021,0.002 0.036,0.0274 0.046,0.0596 -0.5185,6.89649 -2.3625,11.48986 -5.4242,15.12935 -2.1371,2.49375 -2.1883,2.50762 -1.6097,0.42944 1.2559,-4.50921 6.3204,-15.68507 6.9873,-15.61837 z" transform="translate(31.058535,127.48392) translate(5625.0428,-197.57303)"/>
</svg>
